<mxfile host="app.diagrams.net" modified="2023-09-08T23:32:27.764Z" agent="Mozilla/5.0 (Windows NT 10.0; Win64; x64) AppleWebKit/537.36 (KHTML, like Gecko) Chrome/116.0.0.0 Safari/537.36 Edg/116.0.1938.54" etag="p2pv2eMbbzsApMsm2IXr" version="21.7.4" type="device">
  <diagram name="Страница — 1" id="4P2L5_gH-vaIxphFB0y6">
    <mxGraphModel dx="2015" dy="1830" grid="1" gridSize="10" guides="1" tooltips="1" connect="1" arrows="1" fold="1" page="1" pageScale="1" pageWidth="827" pageHeight="1169" math="0" shadow="0">
      <root>
        <mxCell id="0" />
        <mxCell id="1" parent="0" />
        <mxCell id="PjsA1V732GREqCGdD94N-4" value="Член бригады" style="shape=umlActor;verticalLabelPosition=bottom;verticalAlign=top;html=1;outlineConnect=0;" vertex="1" parent="1">
          <mxGeometry x="20" y="460" width="30" height="60" as="geometry" />
        </mxCell>
        <mxCell id="PjsA1V732GREqCGdD94N-9" value="Назначен" style="rhombus;whiteSpace=wrap;html=1;" vertex="1" parent="1">
          <mxGeometry x="-5" y="320" width="80" height="90" as="geometry" />
        </mxCell>
        <mxCell id="PjsA1V732GREqCGdD94N-11" value="Сотрудник" style="html=1;whiteSpace=wrap;" vertex="1" parent="1">
          <mxGeometry x="-20" y="220" width="110" height="50" as="geometry" />
        </mxCell>
        <mxCell id="PjsA1V732GREqCGdD94N-13" value="Включает" style="rhombus;whiteSpace=wrap;html=1;" vertex="1" parent="1">
          <mxGeometry x="-5" y="100" width="80" height="80" as="geometry" />
        </mxCell>
        <mxCell id="PjsA1V732GREqCGdD94N-14" value="Отдел" style="html=1;whiteSpace=wrap;" vertex="1" parent="1">
          <mxGeometry x="-20" width="110" height="50" as="geometry" />
        </mxCell>
        <mxCell id="PjsA1V732GREqCGdD94N-17" value="№ Отдел" style="ellipse;whiteSpace=wrap;html=1;align=center;" vertex="1" parent="1">
          <mxGeometry x="160" y="-20" width="100" height="40" as="geometry" />
        </mxCell>
        <mxCell id="PjsA1V732GREqCGdD94N-19" value="Название" style="ellipse;whiteSpace=wrap;html=1;align=center;" vertex="1" parent="1">
          <mxGeometry x="150" y="30" width="100" height="40" as="geometry" />
        </mxCell>
        <mxCell id="PjsA1V732GREqCGdD94N-21" value="Исполонитель" style="shape=rhombus;perimeter=rhombusPerimeter;whiteSpace=wrap;html=1;align=center;" vertex="1" parent="1">
          <mxGeometry x="180" y="190" width="120" height="60" as="geometry" />
        </mxCell>
        <mxCell id="PjsA1V732GREqCGdD94N-22" value="Руководитель" style="shape=rhombus;perimeter=rhombusPerimeter;whiteSpace=wrap;html=1;align=center;" vertex="1" parent="1">
          <mxGeometry x="180" y="250" width="120" height="60" as="geometry" />
        </mxCell>
        <mxCell id="PjsA1V732GREqCGdD94N-24" value="Проект" style="whiteSpace=wrap;html=1;align=center;" vertex="1" parent="1">
          <mxGeometry x="340" y="220" width="100" height="40" as="geometry" />
        </mxCell>
        <mxCell id="PjsA1V732GREqCGdD94N-29" value="Название" style="ellipse;whiteSpace=wrap;html=1;align=center;" vertex="1" parent="1">
          <mxGeometry x="320" y="100" width="100" height="40" as="geometry" />
        </mxCell>
        <mxCell id="PjsA1V732GREqCGdD94N-30" value="№ Проект" style="ellipse;whiteSpace=wrap;html=1;align=center;" vertex="1" parent="1">
          <mxGeometry x="390" y="130" width="100" height="40" as="geometry" />
        </mxCell>
        <mxCell id="PjsA1V732GREqCGdD94N-36" value="" style="endArrow=none;html=1;rounded=0;entryX=0.5;entryY=1;entryDx=0;entryDy=0;exitX=0.5;exitY=0;exitDx=0;exitDy=0;exitPerimeter=0;" edge="1" parent="1" source="PjsA1V732GREqCGdD94N-4" target="PjsA1V732GREqCGdD94N-9">
          <mxGeometry relative="1" as="geometry">
            <mxPoint x="90" y="450" as="sourcePoint" />
            <mxPoint x="250" y="450" as="targetPoint" />
          </mxGeometry>
        </mxCell>
        <mxCell id="PjsA1V732GREqCGdD94N-37" value="N" style="resizable=0;html=1;whiteSpace=wrap;align=right;verticalAlign=bottom;" connectable="0" vertex="1" parent="PjsA1V732GREqCGdD94N-36">
          <mxGeometry x="1" relative="1" as="geometry">
            <mxPoint y="30" as="offset" />
          </mxGeometry>
        </mxCell>
        <mxCell id="PjsA1V732GREqCGdD94N-38" value="" style="endArrow=none;html=1;rounded=0;exitX=0.5;exitY=0;exitDx=0;exitDy=0;" edge="1" parent="1">
          <mxGeometry relative="1" as="geometry">
            <mxPoint x="34.5" y="320" as="sourcePoint" />
            <mxPoint x="34.5" y="270" as="targetPoint" />
            <Array as="points">
              <mxPoint x="34.5" y="270" />
            </Array>
          </mxGeometry>
        </mxCell>
        <mxCell id="PjsA1V732GREqCGdD94N-39" value="1" style="resizable=0;html=1;whiteSpace=wrap;align=right;verticalAlign=bottom;" connectable="0" vertex="1" parent="PjsA1V732GREqCGdD94N-38">
          <mxGeometry x="1" relative="1" as="geometry">
            <mxPoint y="30" as="offset" />
          </mxGeometry>
        </mxCell>
        <mxCell id="PjsA1V732GREqCGdD94N-41" value="" style="endArrow=none;html=1;rounded=0;entryX=0.5;entryY=1;entryDx=0;entryDy=0;exitX=0.5;exitY=0;exitDx=0;exitDy=0;" edge="1" parent="1" source="PjsA1V732GREqCGdD94N-11" target="PjsA1V732GREqCGdD94N-13">
          <mxGeometry relative="1" as="geometry">
            <mxPoint x="-60" y="290" as="sourcePoint" />
            <mxPoint x="100" y="290" as="targetPoint" />
          </mxGeometry>
        </mxCell>
        <mxCell id="PjsA1V732GREqCGdD94N-42" value="N" style="resizable=0;html=1;whiteSpace=wrap;align=right;verticalAlign=bottom;" connectable="0" vertex="1" parent="PjsA1V732GREqCGdD94N-41">
          <mxGeometry x="1" relative="1" as="geometry">
            <mxPoint y="20" as="offset" />
          </mxGeometry>
        </mxCell>
        <mxCell id="PjsA1V732GREqCGdD94N-43" value="" style="endArrow=none;html=1;rounded=0;exitX=0.5;exitY=1;exitDx=0;exitDy=0;entryX=0.5;entryY=0;entryDx=0;entryDy=0;" edge="1" parent="1" source="PjsA1V732GREqCGdD94N-14" target="PjsA1V732GREqCGdD94N-13">
          <mxGeometry relative="1" as="geometry">
            <mxPoint x="80" y="110" as="sourcePoint" />
            <mxPoint x="240" y="110" as="targetPoint" />
          </mxGeometry>
        </mxCell>
        <mxCell id="PjsA1V732GREqCGdD94N-44" value="1" style="resizable=0;html=1;whiteSpace=wrap;align=right;verticalAlign=bottom;" connectable="0" vertex="1" parent="PjsA1V732GREqCGdD94N-43">
          <mxGeometry x="1" relative="1" as="geometry">
            <mxPoint x="-15" y="-20" as="offset" />
          </mxGeometry>
        </mxCell>
        <mxCell id="PjsA1V732GREqCGdD94N-45" value="" style="endArrow=none;html=1;rounded=0;entryX=0;entryY=0.5;entryDx=0;entryDy=0;" edge="1" parent="1" target="PjsA1V732GREqCGdD94N-17">
          <mxGeometry relative="1" as="geometry">
            <mxPoint x="90" y="20" as="sourcePoint" />
            <mxPoint x="240" y="20" as="targetPoint" />
          </mxGeometry>
        </mxCell>
        <mxCell id="PjsA1V732GREqCGdD94N-46" value="" style="endArrow=none;html=1;rounded=0;entryX=0;entryY=0.5;entryDx=0;entryDy=0;exitX=1;exitY=1;exitDx=0;exitDy=0;" edge="1" parent="1" source="PjsA1V732GREqCGdD94N-14" target="PjsA1V732GREqCGdD94N-19">
          <mxGeometry relative="1" as="geometry">
            <mxPoint x="-60" y="290" as="sourcePoint" />
            <mxPoint x="100" y="290" as="targetPoint" />
          </mxGeometry>
        </mxCell>
        <mxCell id="PjsA1V732GREqCGdD94N-49" value="" style="endArrow=none;html=1;rounded=0;" edge="1" parent="1">
          <mxGeometry relative="1" as="geometry">
            <mxPoint x="90" y="220" as="sourcePoint" />
            <mxPoint x="180" y="220" as="targetPoint" />
          </mxGeometry>
        </mxCell>
        <mxCell id="PjsA1V732GREqCGdD94N-50" value="N" style="resizable=0;html=1;whiteSpace=wrap;align=right;verticalAlign=bottom;" connectable="0" vertex="1" parent="PjsA1V732GREqCGdD94N-49">
          <mxGeometry x="1" relative="1" as="geometry" />
        </mxCell>
        <mxCell id="PjsA1V732GREqCGdD94N-52" value="" style="endArrow=none;html=1;rounded=0;entryX=0;entryY=0.5;entryDx=0;entryDy=0;" edge="1" parent="1" target="PjsA1V732GREqCGdD94N-22">
          <mxGeometry relative="1" as="geometry">
            <mxPoint x="90" y="270" as="sourcePoint" />
            <mxPoint x="250" y="270" as="targetPoint" />
          </mxGeometry>
        </mxCell>
        <mxCell id="PjsA1V732GREqCGdD94N-53" value="N" style="resizable=0;html=1;whiteSpace=wrap;align=right;verticalAlign=bottom;" connectable="0" vertex="1" parent="PjsA1V732GREqCGdD94N-52">
          <mxGeometry x="1" relative="1" as="geometry" />
        </mxCell>
        <mxCell id="PjsA1V732GREqCGdD94N-54" value="" style="endArrow=none;html=1;rounded=0;" edge="1" parent="1">
          <mxGeometry relative="1" as="geometry">
            <mxPoint x="300" y="220" as="sourcePoint" />
            <mxPoint x="340" y="220" as="targetPoint" />
          </mxGeometry>
        </mxCell>
        <mxCell id="PjsA1V732GREqCGdD94N-55" value="N" style="resizable=0;html=1;whiteSpace=wrap;align=right;verticalAlign=bottom;" connectable="0" vertex="1" parent="PjsA1V732GREqCGdD94N-54">
          <mxGeometry x="1" relative="1" as="geometry" />
        </mxCell>
        <mxCell id="PjsA1V732GREqCGdD94N-56" value="" style="endArrow=none;html=1;rounded=0;entryX=0;entryY=1;entryDx=0;entryDy=0;" edge="1" parent="1" target="PjsA1V732GREqCGdD94N-24">
          <mxGeometry relative="1" as="geometry">
            <mxPoint x="300" y="280" as="sourcePoint" />
            <mxPoint x="450" y="280" as="targetPoint" />
          </mxGeometry>
        </mxCell>
        <mxCell id="PjsA1V732GREqCGdD94N-57" value="N" style="resizable=0;html=1;whiteSpace=wrap;align=right;verticalAlign=bottom;" connectable="0" vertex="1" parent="PjsA1V732GREqCGdD94N-56">
          <mxGeometry x="1" relative="1" as="geometry" />
        </mxCell>
        <mxCell id="PjsA1V732GREqCGdD94N-58" value="" style="endArrow=none;html=1;rounded=0;entryX=0.57;entryY=1.05;entryDx=0;entryDy=0;entryPerimeter=0;exitX=1;exitY=0;exitDx=0;exitDy=0;" edge="1" parent="1" source="PjsA1V732GREqCGdD94N-24" target="PjsA1V732GREqCGdD94N-30">
          <mxGeometry relative="1" as="geometry">
            <mxPoint x="430" y="190" as="sourcePoint" />
            <mxPoint x="590" y="190" as="targetPoint" />
          </mxGeometry>
        </mxCell>
        <mxCell id="PjsA1V732GREqCGdD94N-59" value="" style="endArrow=none;html=1;rounded=0;entryX=0.5;entryY=1;entryDx=0;entryDy=0;exitX=0.44;exitY=-0.1;exitDx=0;exitDy=0;exitPerimeter=0;" edge="1" parent="1" source="PjsA1V732GREqCGdD94N-24" target="PjsA1V732GREqCGdD94N-29">
          <mxGeometry relative="1" as="geometry">
            <mxPoint x="160" y="160" as="sourcePoint" />
            <mxPoint x="320" y="160" as="targetPoint" />
          </mxGeometry>
        </mxCell>
        <mxCell id="PjsA1V732GREqCGdD94N-60" value="Дата начала" style="ellipse;whiteSpace=wrap;html=1;align=center;" vertex="1" parent="1">
          <mxGeometry x="304" y="310" width="100" height="40" as="geometry" />
        </mxCell>
        <mxCell id="PjsA1V732GREqCGdD94N-61" value="Дата окончания" style="ellipse;whiteSpace=wrap;html=1;align=center;" vertex="1" parent="1">
          <mxGeometry x="410" y="300" width="100" height="40" as="geometry" />
        </mxCell>
        <mxCell id="PjsA1V732GREqCGdD94N-62" value="" style="endArrow=none;html=1;rounded=0;exitX=0.35;exitY=1;exitDx=0;exitDy=0;exitPerimeter=0;entryX=0.58;entryY=0.075;entryDx=0;entryDy=0;entryPerimeter=0;" edge="1" parent="1" source="PjsA1V732GREqCGdD94N-24" target="PjsA1V732GREqCGdD94N-60">
          <mxGeometry relative="1" as="geometry">
            <mxPoint x="270" y="390" as="sourcePoint" />
            <mxPoint x="430" y="390" as="targetPoint" />
          </mxGeometry>
        </mxCell>
        <mxCell id="PjsA1V732GREqCGdD94N-63" value="" style="endArrow=none;html=1;rounded=0;entryX=1;entryY=1;entryDx=0;entryDy=0;exitX=0.5;exitY=0;exitDx=0;exitDy=0;" edge="1" parent="1" source="PjsA1V732GREqCGdD94N-61" target="PjsA1V732GREqCGdD94N-24">
          <mxGeometry relative="1" as="geometry">
            <mxPoint x="390" y="390" as="sourcePoint" />
            <mxPoint x="550" y="390" as="targetPoint" />
          </mxGeometry>
        </mxCell>
        <mxCell id="PjsA1V732GREqCGdD94N-64" value="" style="endArrow=none;html=1;rounded=0;" edge="1" parent="1">
          <mxGeometry relative="1" as="geometry">
            <mxPoint x="440" y="240" as="sourcePoint" />
            <mxPoint x="510" y="240" as="targetPoint" />
          </mxGeometry>
        </mxCell>
        <mxCell id="PjsA1V732GREqCGdD94N-65" value="N" style="resizable=0;html=1;whiteSpace=wrap;align=right;verticalAlign=bottom;" connectable="0" vertex="1" parent="PjsA1V732GREqCGdD94N-64">
          <mxGeometry x="1" relative="1" as="geometry" />
        </mxCell>
        <mxCell id="PjsA1V732GREqCGdD94N-66" value="Поставка" style="shape=rhombus;perimeter=rhombusPerimeter;whiteSpace=wrap;html=1;align=center;" vertex="1" parent="1">
          <mxGeometry x="510" y="210" width="120" height="60" as="geometry" />
        </mxCell>
        <mxCell id="PjsA1V732GREqCGdD94N-68" value="Поставщик" style="shape=umlActor;verticalLabelPosition=bottom;verticalAlign=top;html=1;" vertex="1" parent="1">
          <mxGeometry x="555" y="80" width="30" height="60" as="geometry" />
        </mxCell>
        <mxCell id="PjsA1V732GREqCGdD94N-69" value="" style="endArrow=none;html=1;rounded=0;entryX=0.594;entryY=0.708;entryDx=0;entryDy=0;entryPerimeter=0;" edge="1" parent="1" target="PjsA1V732GREqCGdD94N-68">
          <mxGeometry relative="1" as="geometry">
            <mxPoint x="570" y="210" as="sourcePoint" />
            <mxPoint x="730" y="210" as="targetPoint" />
          </mxGeometry>
        </mxCell>
        <mxCell id="PjsA1V732GREqCGdD94N-70" value="N" style="resizable=0;html=1;whiteSpace=wrap;align=right;verticalAlign=bottom;" connectable="0" vertex="1" parent="PjsA1V732GREqCGdD94N-69">
          <mxGeometry x="1" relative="1" as="geometry">
            <mxPoint x="-3" y="57" as="offset" />
          </mxGeometry>
        </mxCell>
        <mxCell id="PjsA1V732GREqCGdD94N-71" value="Город" style="ellipse;whiteSpace=wrap;html=1;align=center;" vertex="1" parent="1">
          <mxGeometry x="404" width="100" height="40" as="geometry" />
        </mxCell>
        <mxCell id="PjsA1V732GREqCGdD94N-72" value="№ Поставщик" style="ellipse;whiteSpace=wrap;html=1;align=center;" vertex="1" parent="1">
          <mxGeometry x="530" y="-20" width="100" height="40" as="geometry" />
        </mxCell>
        <mxCell id="PjsA1V732GREqCGdD94N-73" value="Название" style="ellipse;whiteSpace=wrap;html=1;align=center;" vertex="1" parent="1">
          <mxGeometry x="630" width="100" height="40" as="geometry" />
        </mxCell>
        <mxCell id="PjsA1V732GREqCGdD94N-74" value="" style="endArrow=none;html=1;rounded=0;" edge="1" parent="1" target="PjsA1V732GREqCGdD94N-71">
          <mxGeometry relative="1" as="geometry">
            <mxPoint x="570" y="80" as="sourcePoint" />
            <mxPoint x="730" y="80" as="targetPoint" />
          </mxGeometry>
        </mxCell>
        <mxCell id="PjsA1V732GREqCGdD94N-75" value="" style="endArrow=none;html=1;rounded=0;entryX=0.5;entryY=1;entryDx=0;entryDy=0;" edge="1" parent="1" target="PjsA1V732GREqCGdD94N-72">
          <mxGeometry relative="1" as="geometry">
            <mxPoint x="570" y="80" as="sourcePoint" />
            <mxPoint x="730" y="80" as="targetPoint" />
          </mxGeometry>
        </mxCell>
        <mxCell id="PjsA1V732GREqCGdD94N-76" value="" style="endArrow=none;html=1;rounded=0;exitX=0.75;exitY=0.1;exitDx=0;exitDy=0;exitPerimeter=0;entryX=0;entryY=0.5;entryDx=0;entryDy=0;" edge="1" parent="1" source="PjsA1V732GREqCGdD94N-68" target="PjsA1V732GREqCGdD94N-73">
          <mxGeometry relative="1" as="geometry">
            <mxPoint x="580" y="90" as="sourcePoint" />
            <mxPoint x="740" y="90" as="targetPoint" />
          </mxGeometry>
        </mxCell>
        <mxCell id="PjsA1V732GREqCGdD94N-77" value="Количество" style="ellipse;whiteSpace=wrap;html=1;align=center;" vertex="1" parent="1">
          <mxGeometry x="560" y="310" width="100" height="40" as="geometry" />
        </mxCell>
        <mxCell id="PjsA1V732GREqCGdD94N-78" value="" style="endArrow=none;html=1;rounded=0;exitX=0.5;exitY=1;exitDx=0;exitDy=0;entryX=0.5;entryY=0;entryDx=0;entryDy=0;" edge="1" parent="1" source="PjsA1V732GREqCGdD94N-66" target="PjsA1V732GREqCGdD94N-77">
          <mxGeometry relative="1" as="geometry">
            <mxPoint x="530" y="279.58" as="sourcePoint" />
            <mxPoint x="690" y="279.58" as="targetPoint" />
          </mxGeometry>
        </mxCell>
        <mxCell id="PjsA1V732GREqCGdD94N-79" value="" style="endArrow=none;html=1;rounded=0;" edge="1" parent="1" source="PjsA1V732GREqCGdD94N-83">
          <mxGeometry relative="1" as="geometry">
            <mxPoint x="630" y="240" as="sourcePoint" />
            <mxPoint x="790" y="240" as="targetPoint" />
          </mxGeometry>
        </mxCell>
        <mxCell id="PjsA1V732GREqCGdD94N-80" value="N" style="resizable=0;html=1;whiteSpace=wrap;align=right;verticalAlign=bottom;" connectable="0" vertex="1" parent="PjsA1V732GREqCGdD94N-79">
          <mxGeometry x="1" relative="1" as="geometry">
            <mxPoint x="-110" y="30" as="offset" />
          </mxGeometry>
        </mxCell>
        <mxCell id="PjsA1V732GREqCGdD94N-81" value="" style="endArrow=none;html=1;rounded=0;" edge="1" parent="1" source="PjsA1V732GREqCGdD94N-66" target="PjsA1V732GREqCGdD94N-83">
          <mxGeometry relative="1" as="geometry">
            <mxPoint x="630" y="240" as="sourcePoint" />
            <mxPoint x="790" y="240" as="targetPoint" />
          </mxGeometry>
        </mxCell>
        <mxCell id="PjsA1V732GREqCGdD94N-83" value="Деталь" style="whiteSpace=wrap;html=1;align=center;" vertex="1" parent="1">
          <mxGeometry x="700" y="220" width="100" height="40" as="geometry" />
        </mxCell>
        <mxCell id="PjsA1V732GREqCGdD94N-84" value="№ детали" style="ellipse;whiteSpace=wrap;html=1;align=center;" vertex="1" parent="1">
          <mxGeometry x="660" y="130" width="100" height="40" as="geometry" />
        </mxCell>
        <mxCell id="PjsA1V732GREqCGdD94N-85" value="Название" style="ellipse;whiteSpace=wrap;html=1;align=center;" vertex="1" parent="1">
          <mxGeometry x="760" y="130" width="100" height="40" as="geometry" />
        </mxCell>
        <mxCell id="PjsA1V732GREqCGdD94N-86" value="" style="endArrow=none;html=1;rounded=0;entryX=0.5;entryY=1;entryDx=0;entryDy=0;" edge="1" parent="1" target="PjsA1V732GREqCGdD94N-84">
          <mxGeometry relative="1" as="geometry">
            <mxPoint x="750" y="220" as="sourcePoint" />
            <mxPoint x="910" y="220" as="targetPoint" />
          </mxGeometry>
        </mxCell>
        <mxCell id="PjsA1V732GREqCGdD94N-87" value="" style="endArrow=none;html=1;rounded=0;entryX=0.5;entryY=1;entryDx=0;entryDy=0;" edge="1" parent="1" target="PjsA1V732GREqCGdD94N-85">
          <mxGeometry relative="1" as="geometry">
            <mxPoint x="780" y="220" as="sourcePoint" />
            <mxPoint x="940" y="220" as="targetPoint" />
          </mxGeometry>
        </mxCell>
        <mxCell id="PjsA1V732GREqCGdD94N-88" value="" style="endArrow=none;html=1;rounded=0;exitX=0.25;exitY=1;exitDx=0;exitDy=0;entryX=0;entryY=0.5;entryDx=0;entryDy=0;" edge="1" parent="1" source="PjsA1V732GREqCGdD94N-83" target="PjsA1V732GREqCGdD94N-90">
          <mxGeometry relative="1" as="geometry">
            <mxPoint x="710" y="270" as="sourcePoint" />
            <mxPoint x="720" y="280" as="targetPoint" />
          </mxGeometry>
        </mxCell>
        <mxCell id="PjsA1V732GREqCGdD94N-89" value="N" style="resizable=0;html=1;whiteSpace=wrap;align=right;verticalAlign=bottom;" connectable="0" vertex="1" parent="PjsA1V732GREqCGdD94N-88">
          <mxGeometry x="1" relative="1" as="geometry">
            <mxPoint x="-10" y="10" as="offset" />
          </mxGeometry>
        </mxCell>
        <mxCell id="PjsA1V732GREqCGdD94N-90" value="Компонент" style="shape=rhombus;perimeter=rhombusPerimeter;whiteSpace=wrap;html=1;align=center;" vertex="1" parent="1">
          <mxGeometry x="700" y="290" width="120" height="60" as="geometry" />
        </mxCell>
        <mxCell id="PjsA1V732GREqCGdD94N-91" value="" style="endArrow=none;html=1;rounded=0;exitX=1;exitY=1;exitDx=0;exitDy=0;entryX=1;entryY=0.5;entryDx=0;entryDy=0;" edge="1" parent="1" source="PjsA1V732GREqCGdD94N-83" target="PjsA1V732GREqCGdD94N-90">
          <mxGeometry relative="1" as="geometry">
            <mxPoint x="840" y="260" as="sourcePoint" />
            <mxPoint x="1000" y="260" as="targetPoint" />
          </mxGeometry>
        </mxCell>
        <mxCell id="PjsA1V732GREqCGdD94N-92" value="N" style="resizable=0;html=1;whiteSpace=wrap;align=right;verticalAlign=bottom;" connectable="0" vertex="1" parent="PjsA1V732GREqCGdD94N-91">
          <mxGeometry x="1" relative="1" as="geometry">
            <mxPoint x="-10" y="-20" as="offset" />
          </mxGeometry>
        </mxCell>
        <mxCell id="PjsA1V732GREqCGdD94N-93" value="Количество" style="ellipse;whiteSpace=wrap;html=1;align=center;" vertex="1" parent="1">
          <mxGeometry x="710" y="390" width="100" height="40" as="geometry" />
        </mxCell>
        <mxCell id="PjsA1V732GREqCGdD94N-94" value="" style="endArrow=none;html=1;rounded=0;entryX=0.5;entryY=0;entryDx=0;entryDy=0;" edge="1" parent="1" target="PjsA1V732GREqCGdD94N-93">
          <mxGeometry relative="1" as="geometry">
            <mxPoint x="760" y="350" as="sourcePoint" />
            <mxPoint x="920" y="350" as="targetPoint" />
          </mxGeometry>
        </mxCell>
      </root>
    </mxGraphModel>
  </diagram>
</mxfile>
